<?xml version="1.0" encoding="utf-8"?>
<svg version="1.1" id="Layer_1" xmlns="http://www.w3.org/2000/svg" xmlns:xlink="http://www.w3.org/1999/xlink" x="0px" y="0px"
	 width="187px" height="43px" viewBox="0 0 187 43" style="enable-background:new 0 0 187 43;" xml:space="preserve">
<style type="text/css">
	.st0{clip-path:url(#SVGID_2_);fill:#FEFEFE;}
	.st1{clip-path:url(#SVGID_2_);fill:#FFFFFF;}
	.st2{clip-path:url(#SVGID_2_);fill:#F18A00;}
</style>
<g>
	<defs>
		<rect id="SVGID_1_" x="3" y="3" width="179.2" height="36.9"/>
	</defs>
	<clipPath id="SVGID_2_">
		<use xlink:href="#SVGID_1_"  style="overflow:visible;"/>
	</clipPath>
	<polyline class="st0" points="89.4,-9.4 89.7,-10.6 89.7,-10.6 89.4,-9.4 	"/>
	<path class="st1" d="M17,28.5c-3.6,0-6.1-2.9-6.1-6.6c0-3.6,2.5-6.5,5.8-6.5c1.3,0,2.3,0.3,3.2,0.8l0.1,0.1c0.5,0.3,1,0.5,1.7,0.5
		c0.9,0,1.6-0.3,2.2-0.9l0.1-0.1l0.9-1c-0.1-0.1-0.1-0.1-0.2-0.2c-1.4-1.5-3-2.6-5.3-3c-0.8-0.2-1.6-0.2-2.6-0.2
		c-6.1,0-10.5,4.8-10.5,10.6c0,5.8,4.4,10.5,10.5,10.5c3.9,0,6.3-1.6,8.3-3.8l-2.8-2.8C20.8,27.4,19.2,28.5,17,28.5"/>
	<path class="st1" d="M37.9,11.4c-6.2,0-10.8,4.8-10.8,10.6c0,5.8,4.6,10.5,10.7,10.5c6.2,0,10.8-4.8,10.8-10.6
		C48.6,16.1,44.1,11.4,37.9,11.4 M37.9,28.5c-3.6,0-6.2-3-6.2-6.6c0-3.6,2.4-6.5,6.1-6.5c3.6,0,6.2,3,6.2,6.6
		C44,25.6,41.6,28.5,37.9,28.5"/>
	<path class="st1" d="M63.2,11.4c-3.1,0-5,1.6-6.3,3.6v-3.1h-4.6V32h4.6V20.6c0-3.1,1.9-5,4.6-5c2.8,0,4.3,1.8,4.3,4.9v7.6
		c0,2.1,1.7,3.9,3.9,3.9h0.8V32v-7.6v-5.2C70.4,14.4,67.7,11.4,63.2,11.4"/>
	<path class="st1" d="M105.2,11.4c-5.8,0-9.9,4.8-9.9,10.6c0,6.1,4.2,10.2,9.8,10.5c0.2,0,0.4,0,0.6,0c2.8,0,5-0.8,6.7-2.2
		c-0.7-1.2-1.9-2-3.4-2c-0.4,0-0.8,0.1-1.1,0.2l0,0c-0.6,0.2-1.3,0.3-2.1,0.3c-3,0-5.3-1.8-5.8-5.1h14.9c0-0.5,0.1-0.8,0.1-1.3
		C114.9,16.4,111.7,11.4,105.2,11.4 M100,20.5c0.4-3.1,2.4-5.3,5.2-5.3c3.1,0,4.8,2.3,5.1,5.3H100z"/>
	<path class="st1" d="M123.1,16.4v-4.6h-4.6V32h4.6v-7.7c0-5.4,2.8-8,6.9-8h0.3v-4.9C126.7,11.3,124.4,13.3,123.1,16.4"/>
	<path class="st1" d="M141.3,20.1c-2.4-0.8-4.6-1.4-4.6-2.8v-0.1c0-1.2,1-2,2.8-2c0.8,0,1.6,0.2,2.5,0.4c0.2,0.1,0.4,0.1,0.6,0.2
		c0.3,0.1,0.6,0.1,1,0.1c1.2,0,2.3-0.6,3-1.4l0.4-0.7c-2.1-1.4-4.8-2.3-7.3-2.3l-0.2,0c-4,0-7.2,2.3-7.2,6.2v0.1
		c0,3.9,3.3,5.1,6.3,5.9c2.4,0.7,4.5,1.3,4.5,2.8v0.1c0,1.3-1.2,2.2-3.1,2.2c-2.1,0-4.4-0.8-6.6-2.5l-2.1,3.1c2.5,2,5.7,3,8.6,3
		c4.2,0,7.5-2.1,7.5-6.4V26C147.6,22.3,144.3,21,141.3,20.1"/>
	<rect x="151.4" y="11.8" class="st1" width="4.6" height="20.2"/>
	<path class="st1" d="M87.9,14.4L87.9,14.4l-4.5,12.3l-5.4-14.9h-5l8.3,20.4h4.2l5.2-12.7l2.9-7.1l0.2-0.5h-2.2
		C89.8,11.8,88.4,12.9,87.9,14.4"/>
	<path class="st1" d="M174,14.4L174,14.4l-4.5,12.3L164,11.8h-5l8.3,20.4h4.2l5.2-12.7l2.9-7.1l0.2-0.5h-2.2
		C176,11.8,174.6,12.9,174,14.4"/>
</g>
</svg>
