<?xml version="1.0" encoding="utf-8"?>
<svg version="1.1" id="Layer_1" xmlns="http://www.w3.org/2000/svg" xmlns:xlink="http://www.w3.org/1999/xlink" x="0px" y="0px"
	 width="75px" height="75px" viewBox="0 0 75 75" style="enable-background:new 0 0 75 75;" xml:space="preserve">
<style type="text/css">
	.st0{fill:#283256;}
	.st4{fill:#80BC00;}
	.st5{fill:#4380C3;}
	.st6{fill:#285072;}
	.st7{fill:none;}
</style>
<path class="st0" d="M63.2,52c-5,2.1-10.7,3.2-16.7,3.2c-3.7,0-7.4-0.5-10.9-1.3l-3.1,11.4c4.4,1.1,9.1,1.7,14,1.7
	c9.5,0,18.4-2.3,25.5-6.2L63.2,52z"/>
<path class="st4" d="M14.5,14.2c-6.8,5.6-10.9,13-10.9,21.1c0,8.6,4.7,16.5,12.4,22.2l3.3-12.9c-0.1-0.1-0.2-0.3-0.3-0.4
	c-4.8-4.9-7.7-11.1-7.7-17.8C11.1,22,12.3,17.9,14.5,14.2"/>
<path class="st5" d="M23.1,22.4c6-4.4,14.5-7,23.4-7c5.9,0,11.7,1.1,16.7,3.2L72,9.8C64.9,6,56.1,3.7,46.5,3.7
	c-12.7,0-24.2,4.1-32.1,10.6c-2.1,3.7-3.3,7.8-3.3,12.1c0,6.7,2.9,12.9,7.7,17.8c-1.9-2.3-3.5-5.3-3.5-8.9
	C15.3,29.1,20.2,24.6,23.1,22.4"/>
<polyline class="st6" points="15.7,72.5 32.5,65.2 35.6,53.9 14.2,64.2 15.7,72.5 "/>
<path class="st6" d="M3.5,35.3c0,8.7,4.7,16.5,12.4,22.2l3.3-12.9c-0.1-0.1-0.2-0.3-0.3-0.4
	c-4.8-4.9-7.7-11.1-7.7-17.8c0-4.3,1.2-8.5,3.3-12.1C7.7,19.8,3.5,27.2,3.5,35.3"/>
<polyline class="st6" points="16.8,72 32.5,65.2 34.6,57.7 34.6,54.6 34.2,54.6 14.2,64.2 15.6,72 "/>
</svg>
